# xmcd
#
# Track frame offsets:
#	150
#	22952
#	42156
#	60638
#	84720
#	105963
#	129598
#	153490
#	173236
#	195037
#	225465
#	243829
#
# Disc length: 3302 seconds
#
# Revision: 1
# Processed by: cddbd v1.5PL3 Copyright (c) Steve Scherf et al.
# Submitted via: audiograbber 1.82.02
#
DISCID=840ce40c
DTITLE=Mick Pini Band - Blues Survivor
DYEAR=2003
DGENRE=Blues
TTITLE0=I Can't Win
TTITLE1=Is It Me, Is It You
TTITLE2=Blow My Blues
TTITLE3=Why Does Love Feel So Bad
TTITLE4=Careless
TTITLE5=I Won't Be A Fool No More
TTITLE6=Little Girl
TTITLE7=Somebody Gotta Go
TTITLE8=It's Too Late
TTITLE9=I Got It Bad
TTITLE10=Just Playin'
TTITLE11=Blues Survivor
EXTD=
EXTT0=
EXTT1=
EXTT2=
EXTT3=
EXTT4=
EXTT5=
EXTT6=
EXTT7=
EXTT8=
EXTT9=
EXTT10=
EXTT11=
PLAYORDER=
